<svg width="17" height="17" viewBox="0 0 17 17" fill="none" xmlns="http://www.w3.org/2000/svg">
<path fill-rule="evenodd" clip-rule="evenodd" d="M13.6717 3.32825C10.8155 0.471978 6.18453 0.471978 3.32825 3.32825C0.471978 6.18453 0.471978 10.8155 3.32825 13.6717C6.18453 16.528 10.8155 16.528 13.6717 13.6717C16.528 10.8155 16.528 6.18453 13.6717 3.32825ZM2.48959 2.48959C5.80905 -0.829864 11.191 -0.829864 14.5104 2.48959C17.8299 5.80905 17.8299 11.191 14.5104 14.5104C11.191 17.8299 5.80905 17.8299 2.48959 14.5104C-0.829864 11.191 -0.829864 5.80905 2.48959 2.48959ZM5.28513 4.44647C5.51672 4.67806 5.51672 5.05354 5.28513 5.28513C3.50961 7.06066 3.50961 9.93935 5.28513 11.7149C5.51672 11.9465 5.51672 12.3219 5.28513 12.5535C5.05354 12.7851 4.67806 12.7851 4.44647 12.5535C2.20777 10.3148 2.20777 6.68518 4.44647 4.44647C4.67806 4.21488 5.05354 4.21488 5.28513 4.44647ZM11.7149 4.44647C11.9465 4.21488 12.3219 4.21488 12.5535 4.44647C14.7922 6.68518 14.7922 10.3148 12.5535 12.5535C12.3219 12.7851 11.9465 12.7851 11.7149 12.5535C11.4833 12.3219 11.4833 11.9465 11.7149 11.7149C13.4904 9.93935 13.4904 7.06066 11.7149 5.28513C11.4833 5.05354 11.4833 4.67806 11.7149 4.44647ZM8.5 6.72093C7.51745 6.72093 6.72093 7.51745 6.72093 8.5C6.72093 9.48255 7.51745 10.2791 8.5 10.2791C9.48255 10.2791 10.2791 9.48255 10.2791 8.5C10.2791 7.51745 9.48255 6.72093 8.5 6.72093ZM5.53488 8.5C5.53488 6.86241 6.86241 5.53488 8.5 5.53488C10.1376 5.53488 11.4651 6.86241 11.4651 8.5C11.4651 10.1376 10.1376 11.4651 8.5 11.4651C6.86241 11.4651 5.53488 10.1376 5.53488 8.5Z" fill="#1C274C"/>
</svg>
