<svg width="17" height="17" viewBox="0 0 17 17" fill="none" xmlns="http://www.w3.org/2000/svg">
<path fill-rule="evenodd" clip-rule="evenodd" d="M7.94018 1.62734C7.62887 2.03388 7.27748 2.66113 6.76707 3.5768L6.50798 4.04162C6.49236 4.06964 6.47694 4.09739 6.46167 4.12487C6.22389 4.55281 6.0232 4.91399 5.69982 5.1595C5.37295 5.40765 4.97448 5.4972 4.51138 5.60128C4.48162 5.60797 4.45159 5.61471 4.4213 5.62157L3.91816 5.73541C2.92563 5.96 2.25041 6.11452 1.78793 6.29679C1.33662 6.47466 1.24135 6.62038 1.20504 6.73716C1.16672 6.8604 1.16558 7.04892 1.43539 7.47754C1.70923 7.91257 2.17121 8.45519 2.84685 9.24531L3.18986 9.64644C3.20979 9.66975 3.22955 9.69279 3.2491 9.71561C3.56775 10.0873 3.83344 10.3973 3.95531 10.7892C4.07645 11.1788 4.0363 11.5881 3.98762 12.0845C3.98463 12.1149 3.98161 12.1457 3.9786 12.1768L3.92674 12.712C3.82467 13.7653 3.75585 14.4906 3.77912 15.0131C3.80235 15.5346 3.91249 15.6787 4.00006 15.7452C4.07795 15.8043 4.22192 15.8698 4.69096 15.7354C5.16763 15.5988 5.80114 15.3089 6.7305 14.881L7.20159 14.6641C7.2306 14.6507 7.25934 14.6375 7.28783 14.6243C7.71858 14.4251 8.09228 14.2524 8.5 14.2524C8.90772 14.2524 9.28142 14.4251 9.71217 14.6243C9.74066 14.6375 9.7694 14.6507 9.79841 14.6641L10.2695 14.881C11.1989 15.3089 11.8324 15.5988 12.309 15.7354C12.7781 15.8698 12.9221 15.8043 12.9999 15.7452C13.0875 15.6787 13.1976 15.5346 13.2209 15.0131C13.2441 14.4906 13.1753 13.7653 13.0733 12.712L13.0214 12.1768C13.0184 12.1457 13.0154 12.1149 13.0124 12.0845C12.9637 11.5881 12.9236 11.1788 13.0447 10.7892C13.1666 10.3973 13.4323 10.0873 13.7509 9.7156C13.7705 9.69279 13.7902 9.66974 13.8101 9.64643L14.1531 9.24531C14.8288 8.45519 15.2908 7.91257 15.5646 7.47754C15.8344 7.04892 15.8333 6.8604 15.795 6.73716C15.7586 6.62038 15.6634 6.47466 15.2121 6.29679C14.7496 6.11452 14.0744 5.96 13.0818 5.73541L12.5787 5.62157C12.5484 5.61471 12.5184 5.60796 12.4886 5.60128C12.0255 5.4972 11.627 5.40765 11.3002 5.1595C10.9768 4.91399 10.7761 4.55281 10.5383 4.12487C10.5231 4.09739 10.5076 4.06964 10.492 4.04162L10.2329 3.5768C9.72252 2.66113 9.37113 2.03388 9.05982 1.62734C8.74881 1.22119 8.58995 1.18606 8.5 1.18606C8.41005 1.18606 8.25119 1.22119 7.94018 1.62734ZM6.99857 0.906225C7.37547 0.414038 7.8413 0 8.5 0C9.1587 0 9.62453 0.414038 10.0014 0.906225C10.3718 1.38985 10.7645 2.09439 11.2444 2.95547L11.5279 3.46413C11.8383 4.02092 11.9177 4.1392 12.0173 4.21481C12.1131 4.28758 12.2368 4.32817 12.8404 4.46475L13.3939 4.58999C14.3234 4.80028 15.0892 4.97353 15.6469 5.19333C16.2258 5.42148 16.7324 5.75776 16.9275 6.38497C17.1205 7.00571 16.9036 7.5768 16.5683 8.10941C16.2425 8.62689 15.7222 9.23532 15.0867 9.97853L14.7115 10.4173C14.3027 10.8953 14.2173 11.0123 14.1772 11.1414C14.1363 11.273 14.1401 11.4251 14.2019 12.0624L14.2584 12.646C14.3547 13.6392 14.4332 14.4491 14.4057 15.0659C14.3777 15.6937 14.2351 16.2966 13.717 16.6899C13.1893 17.0906 12.5752 17.0454 11.9824 16.8756C11.4075 16.7108 10.6909 16.3809 9.82079 15.9801L9.3024 15.7414C8.73522 15.4803 8.6138 15.4384 8.5 15.4384C8.3862 15.4384 8.26478 15.4803 7.69761 15.7414L7.1792 15.9801C6.30905 16.3808 5.59245 16.7108 5.01764 16.8756C4.42482 17.0454 3.81074 17.0906 3.28296 16.6899C2.76485 16.2966 2.62227 15.6937 2.59431 15.0659C2.56683 14.4491 2.64533 13.6392 2.74158 12.646L2.79814 12.0624C2.85989 11.4251 2.86374 11.273 2.82281 11.1414C2.78267 11.0123 2.69728 10.8953 2.28851 10.4173L1.91335 9.97856C1.27778 9.23534 0.757465 8.6269 0.431712 8.10941C0.0964466 7.5768 -0.120476 7.00571 0.0725459 6.38497C0.267578 5.75776 0.774179 5.42148 1.35309 5.19333C1.91079 4.97353 2.67657 4.80028 3.6061 4.58999L3.65643 4.5786L4.15957 4.46475C4.76319 4.32817 4.88685 4.28758 4.98271 4.21481C5.0823 4.1392 5.1617 4.02092 5.47207 3.46413L5.7556 2.95546C6.23554 2.09439 6.62824 1.38985 6.99857 0.906225Z" fill="#1C274C"/>
</svg>
