<svg width="25" height="25" viewBox="0 0 25 25" fill="none" xmlns="http://www.w3.org/2000/svg">
<path fill-rule="evenodd" clip-rule="evenodd" d="M6.41446 9.2001e-06C6.44813 1.39214e-05 6.48225 1.87101e-05 6.51684 1.87101e-05L6.5587 1.68216e-05C6.95637 -1.06293e-05 7.21227 -2.82329e-05 7.46245 0.0233666C8.53889 0.124028 9.55997 0.54697 10.3923 1.23696C10.5858 1.39732 10.7667 1.57828 11.0479 1.85951L11.7001 2.51174C12.6571 3.46873 13.025 3.82596 13.45 4.06241C13.6967 4.19966 13.9584 4.30805 14.2299 4.38544C14.6976 4.51875 15.2103 4.52631 16.5637 4.52631L17.0442 4.52631C18.4846 4.52629 19.6458 4.52628 20.5645 4.64178C21.5166 4.76149 22.3256 5.01692 22.9903 5.6147C23.1016 5.71481 23.2075 5.82074 23.3076 5.93206C23.9054 6.59668 24.1608 7.40569 24.2805 8.35782C24.396 9.27653 24.396 10.4377 24.396 11.8781V14.4914C24.396 16.571 24.396 18.2181 24.2227 19.5072C24.0443 20.8339 23.6685 21.9077 22.8217 22.7546C21.9749 23.6014 20.9011 23.9772 19.5744 24.1556C18.2853 24.3289 16.6381 24.3289 14.5586 24.3289H9.9046C7.82503 24.3289 6.17787 24.3289 4.88877 24.1556C3.56209 23.9772 2.48828 23.6014 1.64145 22.7546C0.794623 21.9077 0.418808 20.8339 0.24044 19.5072C0.0671247 18.2181 0.067139 16.571 0.067157 14.4914L0.0671574 6.4497C0.0671574 6.41511 0.0671526 6.38099 0.0671479 6.34732C0.0670207 5.44669 0.0669398 4.87352 0.160346 4.37846C0.570578 2.20417 2.27131 0.503439 4.44559 0.0932075C4.94066 -0.000198876 5.51383 -0.000118005 6.41446 9.2001e-06ZM6.51684 1.69738C5.4796 1.69738 5.07857 1.70109 4.76029 1.76114C3.27262 2.04183 2.10896 3.20549 1.82828 4.69315C1.76823 5.01143 1.76452 5.41246 1.76452 6.4497V14.4276C1.76452 16.5853 1.76632 18.1182 1.92267 19.2811C2.07573 20.4195 2.36277 21.0755 2.84167 21.5543C3.32056 22.0332 3.97647 22.3203 5.11494 22.4734C6.27782 22.6297 7.81072 22.6315 9.96843 22.6315H14.4947C16.6524 22.6315 18.1853 22.6297 19.3482 22.4734C20.4867 22.3203 21.1426 22.0332 21.6215 21.5543C22.1004 21.0755 22.3874 20.4195 22.5405 19.2811C22.6968 18.1182 22.6986 16.5853 22.6986 14.4276V11.9358C22.6986 10.4241 22.6971 9.37 22.5964 8.56955C22.4985 7.7903 22.3185 7.37058 22.0456 7.06712C21.9855 7.00034 21.922 6.93678 21.8552 6.87671C21.5517 6.60377 21.132 6.42386 20.3528 6.32588C19.5523 6.22525 18.4982 6.22368 16.9866 6.22368H16.5637C16.5216 6.22368 16.48 6.22368 16.439 6.22369C15.2531 6.22393 14.4884 6.22409 13.7646 6.01778C13.3678 5.90468 12.9853 5.74626 12.6248 5.54566C11.9671 5.17975 11.4265 4.63888 10.5881 3.8002C10.5591 3.77114 10.5297 3.74173 10.4999 3.71196L9.87724 3.0893C9.55669 2.76875 9.43406 2.64733 9.30905 2.5437C8.73956 2.07161 8.04093 1.78223 7.30441 1.71335C7.14275 1.69824 6.97017 1.69738 6.51684 1.69738ZM12.2316 11.0719C12.1658 11.1858 12.0926 11.3169 12.0064 11.4716L11.8952 11.6711C11.8873 11.6852 11.8789 11.7006 11.8699 11.7171C11.7811 11.8796 11.6339 12.1487 11.3885 12.335C11.138 12.5251 10.8367 12.5906 10.6605 12.6288C10.6428 12.6327 10.6264 12.6362 10.6115 12.6396L10.3955 12.6885C10.1972 12.7333 10.0358 12.7699 9.8977 12.8046C9.98751 12.9152 10.1042 13.0524 10.2559 13.2299L10.4032 13.4021C10.4136 13.4143 10.425 13.4274 10.4371 13.4413C10.5592 13.582 10.7564 13.8091 10.8476 14.1024C10.9377 14.3922 10.9066 14.6906 10.887 14.8789C10.885 14.8977 10.8832 14.9153 10.8816 14.9318L10.8593 15.1616C10.8387 15.3746 10.8226 15.5447 10.812 15.6829C10.9299 15.631 11.064 15.5693 11.2234 15.4959L11.4256 15.4028C11.4396 15.3964 11.4548 15.3892 11.4713 15.3814C11.6337 15.3048 11.9162 15.1715 12.2316 15.1715C12.5469 15.1715 12.8295 15.3048 12.9918 15.3814C13.0083 15.3892 13.0236 15.3964 13.0375 15.4028L13.2398 15.4959C13.3991 15.5693 13.5333 15.631 13.6512 15.6829C13.6405 15.5447 13.6245 15.3746 13.6038 15.1616L13.5815 14.9318C13.58 14.9153 13.5781 14.8977 13.5762 14.8789C13.5565 14.6906 13.5255 14.3922 13.6156 14.1024C13.7068 13.8091 13.904 13.582 14.0261 13.4413C14.0382 13.4274 14.0496 13.4143 14.06 13.4021L14.2073 13.2299C14.359 13.0524 14.4756 12.9152 14.5654 12.8046C14.4274 12.7699 14.2659 12.7333 14.0677 12.6885L13.8517 12.6396C13.8367 12.6362 13.8203 12.6327 13.8027 12.6288C13.6265 12.5906 13.3251 12.5251 13.0746 12.335C12.8293 12.1487 12.6821 11.8796 12.5932 11.7171C12.5842 11.7006 12.5758 11.6852 12.568 11.6711L12.4567 11.4716C12.3705 11.3169 12.2974 11.1858 12.2316 11.0719ZM11.1153 9.67456C11.3101 9.42016 11.6639 9.05261 12.2316 9.05261C12.7993 9.05261 13.1531 9.42016 13.3479 9.67456C13.5338 9.91737 13.7211 10.2535 13.9131 10.5981C13.9218 10.6137 13.9305 10.6294 13.9393 10.6451L14.0505 10.8447C14.0763 10.891 14.0966 10.9274 14.1144 10.9585C14.1453 10.9658 14.1813 10.9739 14.2263 10.9841L14.4423 11.033C14.46 11.037 14.4777 11.041 14.4954 11.045C14.8663 11.1288 15.235 11.2121 15.5179 11.3236C15.8304 11.4468 16.254 11.6866 16.4172 12.2115C16.5776 12.7272 16.3752 13.164 16.1985 13.4448C16.0349 13.7046 15.7863 13.9952 15.5318 14.2926C15.5203 14.3061 15.5088 14.3195 15.4973 14.333L15.35 14.5052C15.311 14.5509 15.2816 14.5853 15.2568 14.615C15.2602 14.6562 15.2648 14.7041 15.271 14.7681L15.2933 14.9979C15.295 15.0154 15.2967 15.0329 15.2984 15.0504C15.337 15.4486 15.3744 15.8335 15.3607 16.1413C15.3463 16.4641 15.2688 16.9527 14.8307 17.2853C14.3788 17.6284 13.8796 17.5536 13.5631 17.4629C13.2714 17.3794 12.9268 17.2206 12.5798 17.0607C12.5631 17.053 12.5465 17.0453 12.5299 17.0377L12.3276 16.9446C12.2898 16.9271 12.2587 16.9128 12.2316 16.9005C12.2045 16.9128 12.1734 16.9271 12.1355 16.9446L11.9333 17.0377C11.9166 17.0453 11.9 17.053 11.8834 17.0607C11.5363 17.2206 11.1917 17.3794 10.9001 17.4629C10.5835 17.5536 10.0844 17.6284 9.63242 17.2853C9.19431 16.9527 9.11684 16.4641 9.10247 16.1413C9.08875 15.8335 9.12613 15.4486 9.1648 15.0504C9.1665 15.0329 9.1682 15.0154 9.1699 14.9979L9.19216 14.7681C9.19837 14.7041 9.20299 14.6562 9.20637 14.615C9.18159 14.5853 9.15218 14.5509 9.11316 14.5052L8.96589 14.333C8.95437 14.3195 8.94285 14.3061 8.93135 14.2926C8.67684 13.9952 8.42825 13.7046 8.26468 13.4448C8.08795 13.164 7.88558 12.7272 8.04595 12.2115C8.20919 11.6866 8.63274 11.4468 8.94522 11.3236C9.2282 11.2121 9.59685 11.1288 9.96779 11.045C9.98548 11.041 10.0032 11.037 10.0209 11.033L10.2369 10.9841C10.2819 10.9739 10.3178 10.9658 10.3487 10.9585C10.3665 10.9274 10.3868 10.891 10.4126 10.8447L10.5239 10.6451C10.5326 10.6294 10.5414 10.6137 10.5501 10.5981C10.7421 10.2535 10.9293 9.91737 11.1153 9.67456Z" fill="#1C274C"/>
</svg>
