<svg width="25" height="25" viewBox="0 0 25 25" fill="none" xmlns="http://www.w3.org/2000/svg">
<path d="M9.27508 16.0089C8.89853 15.7298 8.36702 15.8088 8.0879 16.1854C7.80879 16.5619 7.88778 17.0934 8.26433 17.3725C9.36469 18.1882 10.7104 18.671 12.1644 18.671C13.6185 18.671 14.9642 18.1882 16.0645 17.3725C16.4411 17.0934 16.5201 16.5619 16.241 16.1854C15.9618 15.8088 15.4303 15.7298 15.0538 16.0089C14.2296 16.6198 13.2348 16.9736 12.1644 16.9736C11.0941 16.9736 10.0993 16.6198 9.27508 16.0089Z" fill="#1C274C"/>
<path fill-rule="evenodd" clip-rule="evenodd" d="M12.1644 0C11.3631 0 10.6351 0.229506 9.84533 0.613585C9.08185 0.984861 8.19987 1.53225 7.09821 2.21599L4.75973 3.66732C3.71732 4.31425 2.88262 4.83228 2.23927 5.32497C1.57306 5.83518 1.06136 6.3548 0.691743 7.03006C0.3229 7.7039 0.156799 8.42089 0.077162 9.2684C-1.61452e-05 10.0897 -8.79319e-06 11.0941 3.0237e-07 12.3537V14.1785C-1.55379e-05 16.3329 -2.80074e-05 18.0334 0.172795 19.3631C0.350078 20.727 0.722582 21.8282 1.56424 22.6988C2.40978 23.5734 3.48577 23.9641 4.8178 24.1494C6.10879 24.3289 7.75758 24.3289 9.83548 24.3289H14.4933C16.5712 24.3289 18.2201 24.3289 19.5111 24.1494C20.8431 23.9641 21.9191 23.5734 22.7646 22.6988C23.6063 21.8282 23.9788 20.727 24.1561 19.3631C24.3289 18.0334 24.3289 16.3329 24.3289 14.1785V12.3536C24.3289 11.0941 24.3289 10.0897 24.2517 9.2684C24.1721 8.42089 24.006 7.7039 23.6371 7.03006C23.2675 6.3548 22.7558 5.83518 22.0896 5.32497C21.4462 4.83228 20.6116 4.31426 19.5692 3.66734L17.2306 2.21598C16.129 1.53225 15.247 0.984858 14.4835 0.613585C13.6937 0.229505 12.9657 0 12.1644 0ZM7.95444 3.68228C9.10385 2.96892 9.91203 2.46857 10.5876 2.14003C11.2458 1.81994 11.712 1.69736 12.1644 1.69736C12.6169 1.69736 13.083 1.81994 13.7412 2.14003C14.4168 2.46857 15.225 2.96892 16.3744 3.68228L18.6376 5.08685C19.7248 5.76163 20.4882 6.2365 21.0576 6.67256C21.6116 7.09683 21.9303 7.44696 22.1482 7.84504C22.3669 8.24453 22.4945 8.7116 22.5618 9.42719C22.6306 10.1599 22.6315 11.0847 22.6315 12.3952V14.1163C22.6315 16.3466 22.6298 17.9368 22.4729 19.1443C22.3187 20.3302 22.0284 21.0183 21.5443 21.519C21.0641 22.0157 20.4104 22.3106 19.2773 22.4682C18.1167 22.6296 16.5861 22.6315 14.4276 22.6315H9.90128C7.74277 22.6315 6.21216 22.6296 5.0516 22.4682C3.91848 22.3106 3.26475 22.0157 2.78457 21.519C2.3005 21.0183 2.01015 20.3302 1.856 19.1443C1.69905 17.9368 1.69736 16.3466 1.69736 14.1163V12.3952C1.69736 11.0847 1.69823 10.1599 1.76708 9.42719C1.83432 8.7116 1.96198 8.24453 2.18065 7.84504C2.39855 7.44696 2.71728 7.09683 3.27129 6.67256C3.84068 6.2365 4.60403 5.76163 5.69129 5.08685L7.95444 3.68228Z" fill="#1C274C"/>
</svg>
