<svg width="25" height="25" viewBox="0 0 25 25" fill="none" xmlns="http://www.w3.org/2000/svg">
<path fill-rule="evenodd" clip-rule="evenodd" d="M8.31702 8.7697C8.31702 6.42614 10.2169 4.5263 12.5604 4.5263C14.904 4.5263 16.8038 6.42614 16.8038 8.7697C16.8038 11.1133 14.904 13.0131 12.5604 13.0131C10.2169 13.0131 8.31702 11.1133 8.31702 8.7697ZM12.5604 6.22366C11.1543 6.22366 10.0144 7.36356 10.0144 8.7697C10.0144 10.1758 11.1543 11.3157 12.5604 11.3157C13.9666 11.3157 15.1065 10.1758 15.1065 8.7697C15.1065 7.36356 13.9666 6.22366 12.5604 6.22366Z" fill="#1C274C"/>
<path fill-rule="evenodd" clip-rule="evenodd" d="M0.395996 12.1644C0.395996 5.4462 5.8422 0 12.5604 0C19.2787 0 24.7249 5.4462 24.7249 12.1644C24.7249 18.8827 19.2787 24.3289 12.5604 24.3289C5.8422 24.3289 0.395996 18.8827 0.395996 12.1644ZM12.5604 1.69736C6.77962 1.69736 2.09336 6.38363 2.09336 12.1644C2.09336 15.0449 3.25692 17.6537 5.13968 19.5463C5.34381 18.4451 5.74488 17.4069 6.54992 16.572C7.75409 15.3232 9.67962 14.7105 12.5604 14.7105C15.4411 14.7105 17.3666 15.3232 18.5708 16.572C19.3759 17.4069 19.777 18.4452 19.9811 19.5464C21.8639 17.6538 23.0275 15.045 23.0275 12.1644C23.0275 6.38363 18.3412 1.69736 12.5604 1.69736ZM18.4375 20.8271C18.3222 19.4557 18.0244 18.4507 17.349 17.7502C16.6141 16.9881 15.2523 16.4078 12.5604 16.4078C9.8684 16.4078 8.50669 16.9881 7.77177 17.7502C7.09635 18.4507 6.79857 19.4557 6.68328 20.827C8.35871 21.9659 10.3818 22.6315 12.5604 22.6315C14.739 22.6315 16.7621 21.9659 18.4375 20.8271Z" fill="#1C274C"/>
</svg>
