<svg width="24" height="25" viewBox="0 0 24 25" fill="none" xmlns="http://www.w3.org/2000/svg">
<path fill-rule="evenodd" clip-rule="evenodd" d="M4.12804 7.63813C4.12804 3.41971 7.59685 0 11.8758 0C16.1548 0 19.6237 3.41971 19.6237 7.63813V13.296C19.6237 17.5144 16.1548 20.9341 11.8758 20.9341C7.59685 20.9341 4.12804 17.5144 4.12804 13.296V7.63813ZM11.8758 1.69736C8.54774 1.69736 5.84977 4.35713 5.84977 7.63813V13.296C5.84977 16.577 8.54774 19.2368 11.8758 19.2368C15.204 19.2368 17.9019 16.577 17.9019 13.296V7.63813C17.9019 4.35714 15.204 1.69736 11.8758 1.69736ZM10.1711 6.55799C9.84166 6.86505 9.3223 6.86833 8.98877 6.55746C8.64329 6.23545 8.62802 5.6983 8.95465 5.35771L9.56732 5.92876C8.95466 5.35771 8.95512 5.35722 8.95559 5.35674L8.95655 5.35575L8.9585 5.35373L8.96258 5.34955L8.97148 5.34063C8.97773 5.33443 8.98463 5.32774 8.99221 5.32061C9.00737 5.30635 9.02519 5.29031 9.04585 5.2728C9.08721 5.23776 9.13973 5.19703 9.20467 5.15301C9.33491 5.06474 9.51288 4.96479 9.74788 4.8711C10.219 4.68327 10.9046 4.5263 11.8758 4.5263C12.8471 4.5263 13.5327 4.68327 14.0038 4.8711C14.2388 4.96479 14.4168 5.06474 14.547 5.15301C14.612 5.19703 14.6645 5.23776 14.7058 5.2728C14.7265 5.29031 14.7443 5.30635 14.7595 5.32061C14.7671 5.32774 14.774 5.33443 14.7802 5.34063L14.7891 5.34955L14.7932 5.35373L14.7951 5.35575L14.7961 5.35674C14.7966 5.35722 14.797 5.35771 14.1844 5.92876L14.797 5.35771C15.1237 5.6983 15.1084 6.23545 14.7629 6.55746C14.4294 6.86833 13.91 6.86505 13.5806 6.55799C13.5784 6.55637 13.5754 6.55427 13.5716 6.55171C13.5453 6.5339 13.4781 6.49241 13.3583 6.44465C13.1199 6.34959 12.6577 6.22366 11.8758 6.22366C11.094 6.22366 10.6318 6.34959 10.3934 6.44465C10.2736 6.49241 10.2064 6.5339 10.1801 6.55171C10.1763 6.55427 10.1733 6.55637 10.1711 6.55799ZM13.5472 6.52517L13.5478 6.52574L13.5481 6.52603C13.5478 6.52575 13.5475 6.52546 13.5472 6.52517ZM10.1711 9.95271C9.84166 10.2598 9.32231 10.2631 8.98877 9.95218C8.64329 9.63017 8.62802 9.09303 8.95465 8.75244L9.5802 9.33549C8.95465 8.75244 8.95512 8.75195 8.95559 8.75146L8.95655 8.75047L8.9585 8.74846L8.96258 8.74428L8.97148 8.73535C8.97773 8.72915 8.98463 8.72247 8.99221 8.71534C9.00737 8.70107 9.02519 8.68503 9.04585 8.66753C9.08721 8.63248 9.13973 8.59175 9.20467 8.54774C9.33491 8.45947 9.51288 8.35951 9.74788 8.26582C10.219 8.07799 10.9046 7.92102 11.8758 7.92102C12.8471 7.92102 13.5327 8.07799 14.0038 8.26582C14.2388 8.35951 14.4168 8.45947 14.547 8.54774C14.612 8.59175 14.6645 8.63248 14.7058 8.66753C14.7265 8.68503 14.7443 8.70107 14.7595 8.71534C14.7671 8.72247 14.774 8.72915 14.7802 8.73535L14.7891 8.74428L14.7932 8.74846L14.7951 8.75047L14.7961 8.75146C14.7966 8.75195 14.797 8.75244 14.1715 9.33549L14.797 8.75244C15.1237 9.09303 15.1084 9.63017 14.7629 9.95218C14.4294 10.2631 13.91 10.2598 13.5806 9.95273C13.5784 9.95111 13.5754 9.94899 13.5716 9.94644C13.5453 9.92863 13.4781 9.88713 13.3583 9.83938C13.1199 9.74431 12.6577 9.61839 11.8758 9.61839C11.094 9.61839 10.6318 9.74431 10.3934 9.83938C10.2736 9.88713 10.2064 9.92863 10.1801 9.94644C10.1763 9.94899 10.1733 9.9511 10.1711 9.95271ZM13.5479 9.92056C13.5477 9.9204 13.5476 9.92023 13.5474 9.92007C13.5472 9.91988 13.547 9.91969 13.5469 9.9195C13.5469 9.9195 13.5469 9.91951 13.5469 9.91951L13.5474 9.92007L13.5478 9.92046L13.5479 9.92056ZM1.54544 10.1842C2.02088 10.1842 2.4063 10.5641 2.4063 11.0329V13.296C2.4063 18.4519 6.64596 22.6315 11.8758 22.6315C17.1057 22.6315 21.3454 18.4519 21.3454 13.296V11.0329C21.3454 10.5641 21.7308 10.1842 22.2063 10.1842C22.6817 10.1842 23.0671 10.5641 23.0671 11.0329V13.296C23.0671 19.3893 18.0566 24.3289 11.8758 24.3289C5.69508 24.3289 0.68457 19.3893 0.68457 13.296V11.0329C0.68457 10.5641 1.06999 10.1842 1.54544 10.1842Z" fill="#1C274C"/>
</svg>
