<svg width="24" height="22" viewBox="0 0 24 22" fill="none" xmlns="http://www.w3.org/2000/svg">
<path fill-rule="evenodd" clip-rule="evenodd" d="M0.328857 1.82213C0.328857 1.33842 0.731033 0.946289 1.22714 0.946289H21.5882C22.0844 0.946289 22.4865 1.33842 22.4865 1.82213C22.4865 2.30584 22.0844 2.69797 21.5882 2.69797H1.22714C0.731033 2.69797 0.328857 2.30584 0.328857 1.82213ZM21.4244 6.9608C21.1894 7.04525 20.8796 7.18918 20.3901 7.41829L18.2886 8.40177C18.0737 8.50236 17.9511 8.5602 17.8619 8.60922C17.807 8.63934 17.7858 8.65508 17.7803 8.65955C17.7511 8.68887 17.7285 8.72385 17.7141 8.76222C17.7123 8.76896 17.7069 8.79442 17.7028 8.85567C17.6961 8.95535 17.6957 9.0881 17.6957 9.32057C17.6957 9.85003 17.6966 10.1846 17.7203 10.4277C17.7348 10.5773 17.7544 10.6405 17.7609 10.6582C17.8031 10.7099 17.8622 10.7461 17.9283 10.7609C17.9475 10.7589 18.0144 10.7488 18.1589 10.6969C18.394 10.6124 18.7038 10.4685 19.1933 10.2394L21.2947 9.25591C21.5097 9.15532 21.6322 9.09748 21.7215 9.04845C21.7764 9.01831 21.7976 9.00257 21.803 8.99812C21.8322 8.96879 21.8548 8.93381 21.8693 8.89544C21.871 8.88869 21.8764 8.86323 21.8805 8.80201C21.8872 8.70232 21.8877 8.56957 21.8877 8.3371C21.8877 7.80765 21.8867 7.47308 21.8631 7.22993C21.8485 7.08039 21.8289 7.01722 21.8225 6.99951C21.7802 6.94776 21.7212 6.91153 21.655 6.89678C21.6359 6.89879 21.569 6.90887 21.4244 6.9608ZM21.8046 8.99678C21.8045 8.99682 21.804 8.99729 21.803 8.99812L21.8046 8.99678ZM17.7147 8.76029C17.7147 8.76035 17.7145 8.76114 17.7141 8.76222L17.7147 8.76029ZM17.7788 8.6609C17.7787 8.66092 17.7793 8.66044 17.7803 8.65955L17.7788 8.6609ZM20.8033 5.31715C21.137 5.19726 21.5354 5.0944 21.9654 5.1711C22.4951 5.26558 22.9672 5.55522 23.2838 5.97995C23.5408 6.32475 23.6181 6.71943 23.6516 7.06465C23.6843 7.40063 23.6843 7.81962 23.6842 8.29703V8.3371C23.6842 8.36635 23.6843 8.39579 23.6844 8.42541C23.6853 8.77586 23.6863 9.15016 23.5573 9.49498C23.4555 9.7672 23.2955 10.0152 23.0878 10.2225C22.8248 10.4851 22.4783 10.6462 22.1539 10.797C22.1264 10.8098 22.0992 10.8224 22.0721 10.8351L19.9337 11.8359C19.4923 12.0425 19.1049 12.2238 18.7801 12.3405C18.4666 12.4532 18.096 12.5508 17.6957 12.4986V17.5038C17.6957 19.6225 15.9766 21.3825 13.8031 21.3825C11.6296 21.3825 9.91055 19.6225 9.91055 17.5038C9.91055 15.3851 11.6296 13.6251 13.8031 13.6251C14.5788 13.6251 15.2967 13.8493 15.8991 14.2339V9.99662H15.9025C15.8991 9.79945 15.8991 9.58659 15.8991 9.36065L15.8991 9.32057C15.8991 9.29133 15.899 9.26189 15.899 9.23227C15.898 8.88181 15.897 8.50752 16.026 8.16269C16.1278 7.89048 16.2879 7.64249 16.4955 7.43518C16.7585 7.17257 17.1051 7.01149 17.4295 6.86066C17.4569 6.84791 17.4842 6.83524 17.5112 6.82259L19.6497 5.82176C20.0911 5.61516 20.4785 5.43383 20.8033 5.31715ZM15.8991 17.5038C15.8991 16.3057 14.937 15.3768 13.8031 15.3768C12.6692 15.3768 11.7071 16.3057 11.7071 17.5038C11.7071 18.702 12.6692 19.6309 13.8031 19.6309C14.937 19.6309 15.8991 18.702 15.8991 17.5038ZM0.328857 7.66105C0.328857 7.17734 0.731033 6.78521 1.22714 6.78521H12.0065C12.5027 6.78521 12.9048 7.17734 12.9048 7.66105C12.9048 8.14477 12.5027 8.53689 12.0065 8.53689H1.22714C0.731033 8.53689 0.328857 8.14477 0.328857 7.66105ZM0.328857 13.5C0.328857 13.0163 0.731033 12.6241 1.22714 12.6241H7.2157C7.71181 12.6241 8.11399 13.0163 8.11399 13.5C8.11399 13.9837 7.71181 14.3758 7.2157 14.3758H1.22714C0.731033 14.3758 0.328857 13.9837 0.328857 13.5Z" fill="#B17E64"/>
</svg>
